<svg width="36" height="36" viewBox="0 0 36 36" fill="none" xmlns="http://www.w3.org/2000/svg">
<g id="Frame 36">
<circle id="Ellipse 2" cx="18" cy="18" r="18" fill="#FFEB9E"/>
<g id="Vector">
<path d="M24.0128 11.005C22.9413 11.005 21.8941 11.3769 21.0645 12.052C20.3968 12.5954 19.8912 13.3157 19.6057 14.1194C18.8341 13.6761 17.9651 13.444 17.0618 13.444C15.9264 13.444 14.8508 13.8079 13.9515 14.4962C13.2007 15.0709 12.6181 15.8524 12.2797 16.7293C12.1035 16.6804 11.9206 16.6553 11.7367 16.6553C10.616 16.6553 9.70422 17.567 9.70422 18.6877C9.70422 18.781 9.71058 18.8737 9.72328 18.9656C8.60431 19.5007 7.875 20.6376 7.875 21.899C7.875 23.6922 9.33377 25.151 11.127 25.151C11.4793 25.151 11.822 25.0959 12.1499 24.987C12.4546 25.5759 12.8984 26.0812 13.45 26.4631C14.1309 26.9343 14.9301 27.1835 15.761 27.1835C16.1973 27.1835 16.6222 27.1157 17.0294 26.9817C17.4108 27.9938 18.384 28.6875 19.5007 28.6875C20.9576 28.6875 22.1429 27.5022 22.1429 26.0453C22.1429 25.8514 22.122 25.6601 22.0804 25.4729C22.5016 25.2499 22.7895 24.8249 22.8292 24.3331C24.224 23.654 25.1104 22.2492 25.1104 20.6796C25.1104 20.5295 25.1021 20.3793 25.0856 20.2302C26.0297 20.0079 26.8873 19.4936 27.533 18.7554C28.2775 17.9041 28.6875 16.8118 28.6875 15.6797C28.6875 13.1021 26.5904 11.005 24.0128 11.005ZM24.5638 19.5022C24.5624 19.5023 24.5611 19.5028 24.5597 19.503C24.3798 19.5284 24.1959 19.5414 24.0128 19.5414C23.7883 19.5414 23.6063 19.7234 23.6063 19.9479C23.6063 20.1724 23.7883 20.3544 24.0128 20.3544C24.1019 20.3544 24.1911 20.3512 24.2802 20.3461C24.2915 20.4568 24.2974 20.5683 24.2974 20.6796C24.2974 22.0116 23.4995 23.1952 22.2646 23.6951C22.0915 23.7651 21.9884 23.9441 22.0146 24.129C22.0594 24.4446 21.8395 24.7632 21.5118 24.8174C21.261 24.8588 21.1064 25.1334 21.2002 25.3689C21.2863 25.585 21.33 25.8125 21.33 26.0453C21.33 27.0539 20.5093 27.8745 19.5007 27.8745C18.6125 27.8745 17.8554 27.2406 17.7004 26.3671C17.6545 26.1085 17.3663 25.9592 17.1289 26.0694C16.6988 26.2692 16.2386 26.3705 15.761 26.3705C14.418 26.3705 13.2307 25.5637 12.7363 24.3153C12.7339 24.3093 12.731 24.3037 12.7283 24.298C12.7264 24.2921 12.7248 24.2862 12.7226 24.2805C12.581 23.9101 12.509 23.5191 12.509 23.1185C12.509 22.894 12.3271 22.712 12.1025 22.712C11.878 22.712 11.696 22.894 11.696 23.1185C11.696 23.4972 11.7478 23.8691 11.8498 24.2285C11.6173 24.3007 11.3756 24.338 11.127 24.338C9.78203 24.338 8.68799 23.244 8.68799 21.899C8.68799 20.9824 9.20166 20.1538 9.99671 19.7381C10.081 19.8775 10.1817 20.0073 10.2995 20.1249C10.4483 20.2737 10.7176 20.2818 10.8743 20.1249C11.0331 19.9661 11.0331 19.7087 10.8743 19.5501C10.6514 19.327 10.5172 19.0028 10.5172 18.6877C10.5172 18.0153 11.0642 17.4683 11.7367 17.4683C11.9528 17.4683 12.1676 17.5276 12.3539 17.6369C12.6026 17.7825 12.8727 18.1266 13.1739 17.8254C13.3327 17.6667 13.3327 17.4094 13.1739 17.2506C13.1213 17.198 13.0661 17.1488 13.0086 17.1026C13.619 15.4136 15.2452 14.257 17.0618 14.257C17.8987 14.257 18.7003 14.4945 19.3961 14.9447C19.3578 15.187 19.3381 15.4329 19.3381 15.6797C19.3381 15.9042 19.5201 16.0862 19.7446 16.0862C19.9692 16.0862 20.1511 15.9042 20.1511 15.6797C20.1511 15.3986 20.1816 15.119 20.2415 14.8464C20.6273 13.0916 22.2133 11.818 24.0128 11.818C26.1421 11.818 27.8745 13.5504 27.8745 15.6797C27.8745 17.5894 26.4513 19.2327 24.5638 19.5022Z" fill="black"/>
<path d="M12.1432 14.3383C13.0397 14.3383 13.7692 13.6088 13.7692 12.7123C13.7692 11.8158 13.0397 11.0863 12.1432 11.0863C11.2467 11.0863 10.5172 11.8158 10.5172 12.7123C10.5172 13.6088 11.2467 14.3383 12.1432 14.3383ZM12.1432 11.8993C12.5914 11.8993 12.9562 12.264 12.9562 12.7123C12.9562 13.1605 12.5914 13.5253 12.1432 13.5253C11.6949 13.5253 11.3302 13.1605 11.3302 12.7123C11.3302 12.264 11.6949 11.8993 12.1432 11.8993Z" fill="black"/>
<path d="M17.0211 11.9399C18.1418 11.9399 19.0536 11.0282 19.0536 9.90747C19.0536 8.78675 18.1418 7.875 17.0211 7.875C15.9004 7.875 14.9886 8.78675 14.9886 9.90747C14.9886 11.0282 15.9004 11.9399 17.0211 11.9399ZM17.0211 8.68799C17.6936 8.68799 18.2406 9.23501 18.2406 9.90747C18.2406 10.5799 17.6936 11.127 17.0211 11.127C16.3487 11.127 15.8016 10.5799 15.8016 9.90747C15.8016 9.23501 16.3487 8.68799 17.0211 8.68799Z" fill="black"/>
</g>
</g>
</svg>
