<svg width="36" height="36" viewBox="0 0 36 36" fill="none" xmlns="http://www.w3.org/2000/svg">
<g id="Group 8">
<circle id="Ellipse 1" cx="18" cy="18" r="18" fill="#FFEB9E"/>
<path id="Vector" d="M18.0603 11.0498C17.343 10.4337 16.3843 10.125 15.1851 10.125C13.985 10.125 13.0297 10.4333 12.3177 11.0498C11.6058 11.6663 11.25 12.6414 11.25 13.9751V18.6656C11.25 19.9997 11.6058 20.9749 12.3177 21.591C13.0297 22.2075 13.985 22.5157 15.1851 22.5157C16.3843 22.5157 17.343 22.2075 18.0603 21.591C18.7777 20.9749 19.1368 19.9997 19.1368 18.6656V13.9751C19.1368 12.6414 18.7777 11.6663 18.0603 11.0498ZM16.9506 18.6656C16.9506 19.9548 16.3618 20.5988 15.1851 20.5988C14.0187 20.5988 13.4358 19.9544 13.4358 18.6656V13.9751C13.4358 12.6863 14.0187 12.0415 15.1851 12.0415C16.3618 12.0415 16.9506 12.6863 16.9506 13.9751V18.6656Z" fill="#151515"/>
<path id="Vector_2" d="M24.3343 22.1077C24.5735 21.9991 24.7595 21.8032 24.8922 21.519C25.025 21.2349 25.0911 20.9013 25.0911 20.5185C25.0911 19.3674 24.4116 18.7917 23.0531 18.7917C22.6686 18.7917 22.332 18.8466 22.0436 18.9556C21.7553 19.065 21.5356 19.2064 21.3849 19.3803C21.2347 19.5538 21.124 19.7327 21.0537 19.9157C20.983 20.0992 20.9476 20.2839 20.9476 20.4707C20.9476 20.6808 20.9876 20.8226 21.0679 20.8958C21.1482 20.9691 21.3225 21.0057 21.5917 21.0057C21.9891 21.0057 22.188 20.8463 22.188 20.5277C22.188 20.1009 22.473 19.8874 23.0435 19.8874C23.6073 19.8874 23.8894 20.1678 23.8894 20.7286C23.8894 21.1047 23.8129 21.3547 23.6606 21.4791C23.5079 21.6035 23.2915 21.6655 23.0119 21.6655C22.7635 21.6655 22.6399 21.8285 22.6399 22.1555C22.6399 22.4825 22.7614 22.646 23.0052 22.646C23.7101 22.646 24.0625 22.9501 24.0625 23.5587V23.7413C24.0625 24.1066 23.981 24.3712 23.8175 24.5342C23.6539 24.6977 23.393 24.7797 23.0339 24.7797C22.7264 24.7797 22.4826 24.7169 22.3033 24.5921C22.1239 24.4668 22.0345 24.2959 22.0345 24.0779C22.0345 23.9177 21.9895 23.8041 21.8996 23.7368C21.8098 23.6694 21.64 23.6357 21.3903 23.6357C21.1723 23.6357 21.0183 23.671 20.9289 23.7413C20.839 23.812 20.7941 23.9402 20.7941 24.1257C20.7941 24.5746 20.9817 24.9781 21.3566 25.3371C21.7315 25.6957 22.2808 25.875 23.0052 25.875C23.691 25.875 24.2469 25.702 24.673 25.3563C25.099 25.0101 25.3125 24.4718 25.3125 23.7413V23.5587C25.3121 22.8477 24.9863 22.3639 24.3343 22.1077Z" fill="#151515"/>
</g>
</svg>
