<svg width="357" height="84" viewBox="0 0 357 84" fill="none" xmlns="http://www.w3.org/2000/svg">
<path d="M98.4714 5.60634C98.4714 6.5611 98.5019 7.33303 98.5628 7.92214H97.862C97.3745 5.42352 96.7092 3.66636 95.8662 2.65066C95.0231 1.63496 93.8703 1.12711 92.4077 1.12711H91.7069V18.5261C91.7069 19.3792 91.7932 19.9988 91.9659 20.3848C92.1385 20.7708 92.4432 21.0298 92.88 21.1618C93.3167 21.2938 94.0125 21.37 94.9673 21.3903V21.9998C92.4077 21.9388 90.4779 21.9083 89.1778 21.9083C87.8777 21.9083 86.0393 21.9388 83.6016 21.9998V21.3903C84.5563 21.37 85.2521 21.2938 85.6888 21.1618C86.1256 21.0298 86.4303 20.7708 86.603 20.3848C86.7756 19.9988 86.862 19.3792 86.862 18.5261V1.12711H86.1916C85.2165 1.12711 84.3887 1.3404 83.7082 1.76699C83.0277 2.19359 82.4437 2.8995 81.9561 3.88473C81.4686 4.86996 81.0522 6.21576 80.7068 7.92214H80.006C80.0669 7.33303 80.0974 6.5611 80.0974 5.60634C80.0974 4.08279 80.0263 2.3561 79.8841 0.42627C81.7327 0.487212 84.8712 0.517687 89.2997 0.517687C93.7281 0.517687 96.8565 0.487212 98.6847 0.42627C98.5425 2.3561 98.4714 4.08279 98.4714 5.60634Z" fill="url(#paint0_linear_6_3)"/>
<path d="M121.355 1.27946C121.05 1.40135 120.842 1.63495 120.731 1.98029C120.619 2.32563 120.563 2.88427 120.563 3.6562V18.7698C120.563 19.5418 120.619 20.1004 120.731 20.4457C120.842 20.7911 121.05 21.0247 121.355 21.1466C121.66 21.2685 122.158 21.3497 122.848 21.3903V21.9998C121.853 21.9388 120.309 21.9083 118.217 21.9083C116.124 21.9083 114.57 21.9388 113.433 21.9998V21.3903C114.103 21.3497 114.596 21.2685 114.911 21.1466C115.225 21.0247 115.439 20.7911 115.55 20.4457C115.662 20.1004 115.718 19.5418 115.718 18.7698V11.4568H107.643V18.7698C107.643 19.5418 107.699 20.1004 107.811 20.4457C107.923 20.7911 108.131 21.0247 108.435 21.1466C108.74 21.2685 109.238 21.3497 109.929 21.3903V21.9998C108.832 21.9388 107.298 21.9083 105.327 21.9083C103.154 21.9083 101.549 21.9388 100.513 21.9998V21.3903C101.183 21.3497 101.676 21.2685 101.991 21.1466C102.306 21.0247 102.519 20.7911 102.631 20.4457C102.742 20.1004 102.798 19.5418 102.798 18.7698V3.6562C102.798 2.88427 102.742 2.32563 102.631 1.98029C102.519 1.63495 102.306 1.40135 101.991 1.27946C101.676 1.15758 101.183 1.07632 100.513 1.03569V0.42627C101.549 0.487212 103.154 0.517687 105.327 0.517687C107.298 0.517687 108.832 0.487212 109.929 0.42627V1.03569C109.238 1.07632 108.74 1.15758 108.435 1.27946C108.131 1.40135 107.923 1.63495 107.811 1.98029C107.699 2.32563 107.643 2.88427 107.643 3.6562V10.8474H115.718V3.6562C115.718 2.88427 115.662 2.32563 115.55 1.98029C115.439 1.63495 115.225 1.40135 114.911 1.27946C114.596 1.15758 114.103 1.07632 113.433 1.03569V0.42627C114.57 0.487212 116.165 0.517687 118.217 0.517687C120.268 0.517687 121.853 0.487212 122.848 0.42627V1.03569C122.158 1.07632 121.66 1.15758 121.355 1.27946Z" fill="url(#paint1_linear_6_3)"/>
<path d="M141.801 21.9998C140.42 21.9388 138.094 21.9083 134.823 21.9083C130.395 21.9083 127.084 21.9388 124.89 21.9998V21.3903C125.56 21.3497 126.053 21.2685 126.368 21.1466C126.683 21.0247 126.896 20.7911 127.008 20.4457C127.119 20.1004 127.175 19.5418 127.175 18.7698V3.6562C127.175 2.88427 127.119 2.32563 127.008 1.98029C126.896 1.63495 126.683 1.40135 126.368 1.27946C126.053 1.15758 125.56 1.07632 124.89 1.03569V0.42627C127.084 0.487212 130.395 0.517687 134.823 0.517687C137.81 0.517687 139.932 0.487212 141.192 0.42627C141.05 2.11233 140.979 3.61557 140.979 4.93598C140.979 5.8298 141.009 6.52048 141.07 7.00802H140.369C140.064 4.83441 139.516 3.31086 138.724 2.43736C137.931 1.56386 136.814 1.12711 135.372 1.12711H134.123C133.493 1.12711 133.036 1.17789 132.751 1.27946C132.467 1.38103 132.274 1.57909 132.172 1.87365C132.071 2.1682 132.02 2.6405 132.02 3.29055V10.8474H132.995C134.072 10.8474 134.889 10.4512 135.448 9.65899C136.007 8.86675 136.398 7.92215 136.621 6.82519H137.322C137.261 7.67838 137.231 8.63314 137.231 9.68946V11.1521C137.231 12.1881 137.292 13.6304 137.413 15.479H136.713C136.286 12.7975 135.047 11.4568 132.995 11.4568H132.02V19.1355C132.02 19.7855 132.071 20.2578 132.172 20.5524C132.274 20.8469 132.467 21.045 132.751 21.1466C133.036 21.2481 133.493 21.2989 134.123 21.2989H135.616C137.058 21.2989 138.221 20.8063 139.105 19.8211C139.988 18.8358 140.613 17.165 140.979 14.8086H141.679C141.618 15.479 141.588 16.3321 141.588 17.3682C141.588 19.2371 141.659 20.7809 141.801 21.9998Z" fill="url(#paint2_linear_6_3)"/>
<path d="M171.084 20.659C171.409 20.9434 171.825 21.1872 172.333 21.3903V21.9998C170.911 21.9388 169.327 21.9083 167.58 21.9083C166.239 21.9083 164.949 21.9388 163.71 21.9998V21.3903C164.279 21.3497 164.69 21.2888 164.944 21.2075C165.198 21.1263 165.325 20.9841 165.325 20.7809C165.325 20.6184 165.213 20.3645 164.99 20.0191L160.571 12.8584C160.165 12.2084 159.825 11.7716 159.551 11.5482C159.276 11.3247 158.906 11.1927 158.438 11.1521V18.7698C158.438 19.5418 158.494 20.1004 158.606 20.4457C158.718 20.7911 158.926 21.0247 159.231 21.1466C159.535 21.2685 160.033 21.3497 160.724 21.3903V21.9998C159.627 21.9388 158.093 21.9083 156.123 21.9083C153.949 21.9083 152.344 21.9388 151.308 21.9998V21.3903C151.979 21.3497 152.471 21.2685 152.786 21.1466C153.101 21.0247 153.314 20.7911 153.426 20.4457C153.538 20.1004 153.594 19.5418 153.594 18.7698V3.6562C153.594 2.88427 153.538 2.32563 153.426 1.98029C153.314 1.63495 153.101 1.40135 152.786 1.27946C152.471 1.15758 151.979 1.07632 151.308 1.03569V0.42627C152.344 0.487212 153.949 0.517687 156.123 0.517687C158.093 0.517687 159.627 0.487212 160.724 0.42627V1.03569C160.033 1.07632 159.535 1.15758 159.231 1.27946C158.926 1.40135 158.718 1.63495 158.606 1.98029C158.494 2.32563 158.438 2.88427 158.438 3.6562V10.5122C159.251 10.4716 159.992 10.2278 160.663 9.78087C161.333 9.33397 162.095 8.62298 162.948 7.6479L164.746 5.48446C165.68 4.40782 166.148 3.46322 166.148 2.65066C166.148 2.16312 165.95 1.77715 165.553 1.49276C165.157 1.20836 164.604 1.04585 163.893 1.00522V0.42627C165.376 0.487212 166.879 0.517687 168.402 0.517687C169.581 0.517687 170.535 0.487212 171.267 0.42627V1.00522C169.642 1.39119 168.169 2.36626 166.848 3.93043L163.04 8.47062L170.139 19.5316C170.444 19.9988 170.759 20.3746 171.084 20.659Z" fill="url(#paint3_linear_6_3)"/>
<path d="M182.48 1.03569C181.789 1.07632 181.292 1.15758 180.987 1.27946C180.682 1.40135 180.474 1.63495 180.362 1.98029C180.251 2.32563 180.195 2.88427 180.195 3.6562V18.7698C180.195 19.5418 180.251 20.1004 180.362 20.4457C180.474 20.7911 180.682 21.0247 180.987 21.1466C181.292 21.2685 181.789 21.3497 182.48 21.3903V21.9998C181.383 21.9388 179.849 21.9083 177.879 21.9083C175.705 21.9083 174.101 21.9388 173.065 21.9998V21.3903C173.735 21.3497 174.228 21.2685 174.542 21.1466C174.857 21.0247 175.071 20.7911 175.182 20.4457C175.294 20.1004 175.35 19.5418 175.35 18.7698V3.6562C175.35 2.88427 175.294 2.32563 175.182 1.98029C175.071 1.63495 174.857 1.40135 174.542 1.27946C174.228 1.15758 173.735 1.07632 173.065 1.03569V0.42627C174.101 0.487212 175.705 0.517687 177.879 0.517687C179.849 0.517687 181.383 0.487212 182.48 0.42627V1.03569Z" fill="url(#paint4_linear_6_3)"/>
<path d="M204.602 1.03569C203.932 1.13726 203.439 1.30993 203.124 1.5537C202.809 1.79747 202.596 2.18343 202.484 2.7116C202.373 3.23976 202.317 4.02185 202.317 5.05786V22.0607L201.585 22.0302L200.763 22.0607L187.538 5.30164V17.0025C187.538 18.201 187.599 19.0796 187.721 19.6383C187.843 20.1969 188.107 20.6032 188.513 20.8571C188.92 21.111 189.58 21.2888 190.494 21.3903V21.9998C189.702 21.9388 188.605 21.9083 187.203 21.9083C186.086 21.9083 185.202 21.9388 184.552 21.9998V21.3903C185.222 21.2888 185.715 21.1161 186.03 20.8723C186.345 20.6286 186.558 20.2426 186.67 19.7144C186.782 19.1863 186.837 18.4042 186.837 17.3682V3.6562C186.837 2.88427 186.782 2.32563 186.67 1.98029C186.558 1.63495 186.345 1.40135 186.03 1.27946C185.715 1.15758 185.222 1.07632 184.552 1.03569V0.42627C185.202 0.487212 186.086 0.517687 187.203 0.517687C188.219 0.517687 189.092 0.487212 189.824 0.42627L201.616 14.9609V5.42352C201.616 4.22499 201.555 3.34641 201.433 2.78777C201.311 2.22914 201.047 1.82286 200.641 1.56893C200.235 1.31501 199.574 1.13726 198.66 1.03569V0.42627C199.452 0.487212 200.549 0.517687 201.951 0.517687C203.089 0.517687 203.972 0.487212 204.602 0.42627V1.03569Z" fill="url(#paint5_linear_6_3)"/>
<path d="M220.797 0.51801C221.661 0.863348 222.509 1.35088 223.342 1.98061C223.585 2.16344 223.789 2.25486 223.951 2.25486C224.154 2.25486 224.317 2.10758 224.439 1.81302C224.561 1.51847 224.652 1.05633 224.713 0.426593H225.414C225.332 1.80795 225.292 4.26594 225.292 7.80058H224.591C224.429 6.41923 224.19 5.30196 223.875 4.44877C223.56 3.59558 223.037 2.87443 222.306 2.28533C221.818 1.8181 221.219 1.45245 220.508 1.18837C219.797 0.924286 219.066 0.792246 218.314 0.792246C216.892 0.792246 215.709 1.27471 214.764 2.23962C213.82 3.20454 213.124 4.47924 212.677 6.06374C212.23 7.64823 212.006 9.38507 212.006 11.2743C212.006 18.3029 213.957 21.8173 217.857 21.8173C218.751 21.8173 219.472 21.6141 220.02 21.2078C220.284 21.025 220.472 20.8117 220.584 20.5679C220.696 20.3242 220.752 20.0093 220.752 19.6233V16.6372C220.752 15.6824 220.67 14.9867 220.508 14.5499C220.345 14.1132 220.056 13.8135 219.639 13.651C219.223 13.4885 218.568 13.3869 217.674 13.3463V12.7369C218.934 12.7978 220.67 12.8283 222.885 12.8283C224.693 12.8283 226.054 12.7978 226.968 12.7369V13.3463C226.561 13.3869 226.267 13.4682 226.084 13.5901C225.901 13.712 225.774 13.9456 225.703 14.2909C225.632 14.6363 225.597 15.1949 225.597 15.9668V22.0001H224.987C224.967 21.5735 224.88 21.1774 224.728 20.8117C224.576 20.4461 224.368 20.2632 224.103 20.2632C223.758 20.2632 223.21 20.4765 222.458 20.9031C220.691 21.9188 219.025 22.4267 217.461 22.4267C213.946 22.4267 211.255 21.4668 209.386 19.5472C207.517 17.6275 206.583 14.9308 206.583 11.4571C206.583 9.18194 207.055 7.181 208 5.45431C208.944 3.72762 210.249 2.38689 211.915 1.43213C213.581 0.477375 215.48 0 217.613 0C218.873 0 219.934 0.172671 220.797 0.51801Z" fill="url(#paint6_linear_6_3)"/>
<path d="M252.518 1.31026C254.133 2.18376 255.387 3.44831 256.281 5.1039C257.175 6.75949 257.622 8.73503 257.622 11.0305C257.622 13.326 257.165 15.2457 256.25 16.9724C255.336 18.6991 254.062 20.0398 252.426 20.9945C250.791 21.9493 248.927 22.4267 246.835 22.4267C244.743 22.4267 242.797 21.9899 241.183 21.1164C239.568 20.2429 238.313 18.9784 237.419 17.3228C236.526 15.6672 236.079 13.6916 236.079 11.3962C236.079 9.10068 236.536 7.181 237.45 5.45431C238.364 3.72762 239.639 2.38689 241.274 1.43213C242.909 0.477375 244.773 0 246.865 0C248.958 0 250.903 0.436752 252.518 1.31026ZM243.783 1.90444C242.93 2.80841 242.274 4.07296 241.817 5.69808C241.36 7.3232 241.132 9.18194 241.132 11.2743C241.132 13.3666 241.391 15.2457 241.909 16.8505C242.427 18.4553 243.128 19.6944 244.011 20.5679C244.895 21.4414 245.875 21.8782 246.952 21.8782C248.028 21.8782 249.054 21.4262 249.907 20.5222C250.761 19.6183 251.416 18.3537 251.873 16.7286C252.33 15.1035 252.558 13.2447 252.558 11.1524C252.558 9.06005 252.299 7.181 251.781 5.5762C251.263 3.97139 250.562 2.73224 249.679 1.85873C248.795 0.985232 247.815 0.548479 246.738 0.548479C245.662 0.548479 244.636 1.00047 243.783 1.90444Z" fill="url(#paint7_linear_6_3)"/>
<path d="M275.813 5.05786C275.813 6.01262 275.843 6.78456 275.904 7.37367H275.203C274.797 5.07818 274.188 3.46322 273.375 2.52877C272.563 1.59433 271.425 1.12711 269.962 1.12711H268.957C268.327 1.12711 267.87 1.17789 267.586 1.27946C267.301 1.38103 267.108 1.57909 267.007 1.87365C266.905 2.1682 266.854 2.6405 266.854 3.29055V10.9692H267.921C268.997 10.9692 269.815 10.5731 270.374 9.78087C270.932 8.98863 271.323 8.04402 271.547 6.94707H272.248C272.187 7.80026 272.156 8.75502 272.156 9.81134V11.274C272.156 12.31 272.217 13.7523 272.339 15.6008H271.638C271.212 12.9194 269.973 11.5787 267.921 11.5787H266.854V18.587C266.854 19.3996 266.941 19.9937 267.113 20.3696C267.286 20.7454 267.591 20.9942 268.027 21.1161C268.464 21.238 269.16 21.3091 270.115 21.3294V21.9998C267.616 21.9388 265.757 21.9083 264.539 21.9083C263.523 21.9083 262.243 21.9287 260.699 21.9693L259.724 21.9998V21.3903C260.394 21.3497 260.887 21.2685 261.202 21.1466C261.517 21.0247 261.73 20.7911 261.842 20.4457C261.954 20.1004 262.009 19.5418 262.009 18.7698V3.6562C262.009 2.88427 261.954 2.32563 261.842 1.98029C261.73 1.63495 261.517 1.40135 261.202 1.27946C260.887 1.15758 260.394 1.07632 259.724 1.03569V0.42627C261.918 0.487212 265.229 0.517687 269.658 0.517687C272.644 0.517687 274.767 0.487212 276.026 0.42627C275.884 2.15296 275.813 3.69682 275.813 5.05786Z" fill="url(#paint8_linear_6_3)"/>
<path d="M37.0528 25.0826C39.3279 26.0019 41.5473 27.307 43.7158 28.9829C44.31 29.4705 44.828 29.7142 45.2596 29.7142C46.3414 29.7142 47.0473 28.0891 47.3723 24.8389H49.2412C49.0228 28.5208 48.9162 35.0771 48.9162 44.5028H47.0473C46.5597 40.4959 45.9097 37.4336 45.0971 35.3209C44.2846 33.2083 42.9032 31.3698 40.9531 29.7955C39.5971 28.4954 38.0278 27.5102 36.2402 26.8297C34.4526 26.1542 32.5837 25.814 30.6335 25.814C25.1589 25.814 21.0961 28.4802 18.4451 33.8177C15.7891 39.1552 14.4636 45.8029 14.4636 53.766C14.4636 61.7291 15.8449 68.2855 18.6076 73.5925C21.3703 78.9046 25.4839 81.5556 30.9586 81.5556C32.797 81.5556 34.6303 81.2154 36.4434 80.5399C38.2564 79.8645 39.785 78.8742 41.0343 77.5741C43.0353 76.0607 44.4318 74.1613 45.219 71.8862C46.0011 69.611 46.6156 66.2795 47.0473 61.8917H48.9162C48.9162 71.6982 49.0228 78.5237 49.2412 82.3682H47.3723C47.2098 80.6364 46.9762 79.4023 46.6816 78.671C46.382 77.9397 45.9605 77.5741 45.4222 77.5741C44.9905 77.5741 44.4217 77.7924 43.7158 78.2241C41.2781 79.961 38.9471 81.2712 36.7277 82.165C34.5034 83.0589 31.8219 83.5058 28.6834 83.5058C22.9396 83.5058 17.917 82.3428 13.6104 80.0118C9.30382 77.6858 5.95709 74.3086 3.57527 69.8954C1.19345 65.4821 0 60.2107 0 54.0911C0 47.9715 1.21884 42.8523 3.65652 38.2461C6.09421 33.6399 9.49173 30.0647 13.8542 27.5203C18.2115 24.976 23.1834 23.7013 28.7647 23.7013C32.0149 23.7013 34.7776 24.1634 37.0528 25.0826Z" fill="url(#paint9_linear_6_3)"/>
<path d="M76.8327 36.9458C75.2482 37.0321 74.0903 37.2099 73.3641 37.4739C72.6379 37.738 72.1452 38.2459 71.8812 38.9924C71.6171 39.739 71.485 40.9527 71.485 42.6235V76.162C71.485 77.5687 71.5968 78.5946 71.8151 79.2294C72.0335 79.8693 72.4195 80.2959 72.968 80.5194C73.5164 80.7377 74.4103 80.8495 75.6393 80.8495H78.8743C81.8655 80.8495 84.4505 79.5087 86.6291 76.8222C88.8078 74.1357 90.2247 70.5706 90.89 66.1269H92.4085C92.2764 67.625 92.2104 69.5599 92.2104 71.9367C92.2104 76.162 92.3628 79.6408 92.6726 82.3679C89.6813 82.2359 84.6384 82.1699 77.5538 82.1699C67.9606 82.1699 60.7846 82.2359 56.0311 82.3679V81.0475C57.4836 80.9612 58.5501 80.7834 59.2357 80.5194C59.9162 80.2553 60.3783 79.7474 60.6221 79.0009C60.8659 78.2543 60.9827 77.0406 60.9827 75.3697V42.6235C60.9827 40.9527 60.8608 39.739 60.6221 38.9924C60.3783 38.2459 59.9162 37.738 59.2357 37.4739C58.5552 37.2099 57.4836 37.0321 56.0311 36.9458V35.6254C58.2758 35.7574 61.7546 35.8234 66.4624 35.8234C71.1702 35.8234 74.4052 35.7574 76.8276 35.6254V36.9458H76.8327Z" fill="url(#paint10_linear_6_3)"/>
<path d="M133.016 82.3679C130.025 82.2359 124.982 82.1699 117.897 82.1699C108.304 82.1699 101.128 82.2359 96.3748 82.3679V81.0475C97.8272 80.9612 98.8937 80.7834 99.5793 80.5194C100.26 80.2553 100.722 79.7474 100.966 79.0009C101.204 78.2543 101.326 77.0406 101.326 75.3697V42.6235C101.326 40.9527 101.204 39.739 100.966 38.9924C100.722 38.2459 100.26 37.738 99.5793 37.4739C98.8937 37.2099 97.8272 37.0321 96.3748 36.9458V35.6254C101.128 35.7574 108.299 35.8234 117.897 35.8234C124.368 35.8234 128.969 35.7574 131.696 35.6254C131.386 39.2768 131.234 42.5372 131.234 45.3964C131.234 47.3313 131.3 48.8295 131.432 49.8858H129.913C129.253 45.178 128.065 41.877 126.348 39.9827C124.632 38.0884 122.209 37.1438 119.086 37.1438H116.379C115.013 37.1438 114.023 37.2556 113.408 37.4739C112.794 37.6923 112.372 38.124 112.154 38.7588C111.93 39.3987 111.824 40.4195 111.824 41.8262V58.1993H113.936C116.267 58.1993 118.04 57.341 119.248 55.6245C120.457 53.908 121.305 51.8614 121.788 49.4846H123.306C123.174 51.3332 123.108 53.4001 123.108 55.6905V58.8595C123.108 61.1042 123.24 64.2326 123.504 68.2345H121.986C121.061 62.4246 118.375 59.5197 113.931 59.5197H111.819V76.1569C111.819 77.5637 111.925 78.5895 112.149 79.2243C112.367 79.8642 112.783 80.2908 113.403 80.5143C114.018 80.7327 115.008 80.8444 116.374 80.8444H119.609C122.732 80.8444 125.256 79.7779 127.166 77.6449C129.08 75.512 130.436 71.891 131.223 66.7871H132.742C132.61 68.2395 132.544 70.0881 132.544 72.3328C132.544 76.3804 132.696 79.7271 133.006 82.3679H133.016Z" fill="url(#paint11_linear_6_3)"/>
<path d="M178.306 79.9911C179.053 80.6513 179.779 81.0018 180.485 81.0475V82.3679C177.844 82.2358 174.497 82.1698 170.45 82.1698C165.96 82.1698 162.614 82.2358 160.415 82.3679V81.0475C162.086 80.9611 163.274 80.7529 163.98 80.4177C164.681 80.0876 165.036 79.5036 165.036 78.6657C165.036 77.8734 164.772 76.8171 164.244 75.4967L160.283 64.6693H145.89L144.174 69.2247C142.94 72.3937 142.325 74.8365 142.325 76.553C142.325 78.2695 142.818 79.3157 143.808 79.9556C144.798 80.5955 146.261 80.9561 148.196 81.0475V82.3679C145.205 82.2358 142.472 82.1698 140.009 82.1698C137.983 82.1698 136.312 82.2358 134.992 82.3679V81.0475C137.15 80.6514 139.039 78.3406 140.669 74.1153L155.722 35.4933C156.205 35.539 156.977 35.5593 158.033 35.5593C159.089 35.5593 159.836 35.539 160.278 35.4933L176.321 76.8222C176.894 78.2746 177.555 79.3309 178.301 79.9911H178.306ZM159.821 63.354L153.284 45.5284L146.418 63.354H159.821Z" fill="url(#paint12_linear_6_3)"/>
<path d="M224.455 36.9458C223.002 37.1642 221.936 37.54 221.255 38.0681C220.575 38.5963 220.113 39.4342 219.869 40.5769C219.625 41.7196 219.508 43.4158 219.508 45.6605V82.5L217.924 82.4339L216.141 82.5L187.488 46.1887V71.5406C187.488 74.1408 187.62 76.0401 187.884 77.2539C188.148 78.4626 188.717 79.3462 189.601 79.8947C190.479 80.4432 191.912 80.8291 193.892 81.0526V82.373C192.176 82.241 189.799 82.1749 186.762 82.1749C184.34 82.1749 182.425 82.241 181.018 82.373V81.0526C182.471 80.8342 183.537 80.4584 184.223 79.9302C184.903 79.4021 185.365 78.5641 185.609 77.4215C185.853 76.2788 185.97 74.5826 185.97 72.3379V42.6286C185.97 40.9578 185.848 39.744 185.609 38.9975C185.365 38.251 184.903 37.7431 184.223 37.479C183.542 37.2149 182.471 37.0372 181.018 36.9509V35.6304C182.425 35.7625 184.34 35.8285 186.762 35.8285C188.961 35.8285 190.855 35.7625 192.44 35.6304L217.99 67.1223V46.4578C217.99 43.8627 217.858 41.9583 217.594 40.7445C217.33 39.5358 216.756 38.6522 215.877 38.1037C214.993 37.5552 213.566 37.1692 211.586 36.9458V35.6254C213.302 35.7574 215.679 35.8234 218.716 35.8234C221.179 35.8234 223.094 35.7574 224.46 35.6254V36.9458H224.455Z" fill="url(#paint13_linear_6_3)"/>
<path d="M249.009 36.9458C247.511 37.0321 246.434 37.2099 245.774 37.4739C245.114 37.738 244.662 38.2459 244.418 38.9924C244.175 39.739 244.058 40.9527 244.058 42.6235V75.3697C244.058 77.0406 244.18 78.2543 244.418 79.0009C244.662 79.7474 245.114 80.2553 245.774 80.5194C246.434 80.7834 247.511 80.9612 249.009 81.0475V82.3679C246.633 82.2359 243.311 82.1699 239.04 82.1699C234.332 82.1699 230.854 82.2359 228.609 82.3679V81.0475C230.061 80.9612 231.128 80.7834 231.808 80.5194C232.489 80.2553 232.951 79.7474 233.195 79.0009C233.439 78.2543 233.555 77.0406 233.555 75.3697V42.6235C233.555 40.9527 233.433 39.739 233.195 38.9924C232.951 38.2459 232.489 37.738 231.808 37.4739C231.128 37.2099 230.061 37.0321 228.609 36.9458V35.6254C230.854 35.7574 234.332 35.8234 239.04 35.8234C243.311 35.8234 246.633 35.7574 249.009 35.6254V36.9458Z" fill="url(#paint14_linear_6_3)"/>
<path d="M296.94 36.9458C295.488 37.1642 294.421 37.54 293.741 38.0681C293.06 38.5963 292.598 39.4342 292.354 40.5769C292.111 41.7196 291.994 43.4158 291.994 45.6605V82.5L290.409 82.4339L288.627 82.5L259.974 46.1887V71.5406C259.974 74.1408 260.106 76.0401 260.37 77.2539C260.634 78.4626 261.203 79.3462 262.086 79.8947C262.965 80.4432 264.397 80.8291 266.378 81.0526V82.373C264.661 82.241 262.284 82.1749 259.247 82.1749C256.825 82.1749 254.91 82.241 253.504 82.373V81.0526C254.956 80.8342 256.023 80.4584 256.708 79.9302C257.389 79.4021 257.851 78.5641 258.095 77.4215C258.338 76.2788 258.455 74.5826 258.455 72.3379V42.6286C258.455 40.9578 258.333 39.744 258.095 38.9975C257.851 38.251 257.389 37.7431 256.708 37.479C256.028 37.2149 254.956 37.0372 253.504 36.9509V35.6304C254.91 35.7625 256.825 35.8285 259.247 35.8285C261.446 35.8285 263.341 35.7625 264.925 35.6304L290.475 67.1223V46.4578C290.475 43.8627 290.343 41.9583 290.079 40.7445C289.815 39.5358 289.241 38.6522 288.363 38.1037C287.479 37.5552 286.052 37.1692 284.071 36.9458V35.6254C285.788 35.7574 288.165 35.8234 291.201 35.8234C293.665 35.8234 295.579 35.7574 296.945 35.6254V36.9458H296.94Z" fill="url(#paint15_linear_6_3)"/>
<path d="M340.255 25.0825C342.555 26.0017 344.82 27.3069 347.04 28.9828C347.69 29.4704 348.228 29.7141 348.665 29.7141C349.203 29.7141 349.64 29.3231 349.965 28.5359C350.29 27.7538 350.534 26.5197 350.696 24.8388H352.565C352.347 28.5207 352.24 35.077 352.24 44.5027H350.371C349.934 40.8208 349.3 37.8397 348.462 35.5646C347.624 33.2894 346.227 31.3697 344.277 29.7954C342.977 28.5511 341.377 27.5761 339.483 26.8702C337.583 26.1693 335.633 25.8138 333.632 25.8138C329.839 25.8138 326.685 27.1038 324.166 29.6735C321.647 32.2483 319.788 35.6458 318.6 39.8711C317.407 44.0964 316.812 48.728 316.812 53.7659C316.812 72.5107 322.013 81.8805 332.414 81.8805C334.795 81.8805 336.72 81.3371 338.183 80.2554C338.884 79.7679 339.386 79.1991 339.686 78.549C339.981 77.899 340.133 77.061 340.133 76.0301V68.067C340.133 65.5227 339.914 63.6639 339.483 62.5009C339.046 61.338 338.274 60.5356 337.167 60.1039C336.055 59.6722 334.308 59.4031 331.926 59.2913V57.6662C335.283 57.8287 339.915 57.91 345.821 57.91C350.64 57.91 354.271 57.8287 356.709 57.6662V59.2913C355.627 59.4031 354.84 59.6163 354.353 59.9414C353.865 60.2664 353.525 60.8911 353.337 61.8103C353.144 62.7346 353.053 64.2226 353.053 66.2794V82.3681H351.427C351.372 81.2305 351.143 80.1741 350.737 79.1991C350.331 78.224 349.772 77.7365 349.071 77.7365C348.152 77.7365 346.684 78.3053 344.683 79.4428C339.97 82.1497 335.527 83.5056 331.357 83.5056C321.982 83.5056 314.806 80.9461 309.824 75.8269C304.842 70.7078 302.349 63.5167 302.349 54.2535C302.349 48.1897 303.608 42.8522 306.127 38.246C308.646 33.6398 312.125 30.0645 316.569 27.5202C321.012 24.9759 326.076 23.7012 331.764 23.7012C335.12 23.7012 337.954 24.1633 340.255 25.0825Z" fill="url(#paint16_linear_6_3)"/>
<defs>
<linearGradient id="paint0_linear_6_3" x1="153.873" y1="-33.7165" x2="204.429" y2="53.8522" gradientUnits="userSpaceOnUse">
<stop stop-color="#D69C47"/>
<stop offset="0.24" stop-color="#FFE68F"/>
<stop offset="0.32" stop-color="#E8BC66"/>
<stop offset="0.39" stop-color="#D69C47"/>
<stop offset="0.53" stop-color="#ECC675"/>
<stop offset="0.67" stop-color="#FFEB9E"/>
<stop offset="0.81" stop-color="#977943"/>
<stop offset="0.89" stop-color="#603D13"/>
<stop offset="0.92" stop-color="#7A5118"/>
<stop offset="0.95" stop-color="#8C5E1C"/>
<stop offset="1" stop-color="#D69C47"/>
</linearGradient>
<linearGradient id="paint1_linear_6_3" x1="153.873" y1="-33.7165" x2="204.429" y2="53.8521" gradientUnits="userSpaceOnUse">
<stop stop-color="#D69C47"/>
<stop offset="0.24" stop-color="#FFE68F"/>
<stop offset="0.32" stop-color="#E8BC66"/>
<stop offset="0.39" stop-color="#D69C47"/>
<stop offset="0.53" stop-color="#ECC675"/>
<stop offset="0.67" stop-color="#FFEB9E"/>
<stop offset="0.81" stop-color="#977943"/>
<stop offset="0.89" stop-color="#603D13"/>
<stop offset="0.92" stop-color="#7A5118"/>
<stop offset="0.95" stop-color="#8C5E1C"/>
<stop offset="1" stop-color="#D69C47"/>
</linearGradient>
<linearGradient id="paint2_linear_6_3" x1="153.873" y1="-33.7165" x2="204.429" y2="53.8522" gradientUnits="userSpaceOnUse">
<stop stop-color="#D69C47"/>
<stop offset="0.24" stop-color="#FFE68F"/>
<stop offset="0.32" stop-color="#E8BC66"/>
<stop offset="0.39" stop-color="#D69C47"/>
<stop offset="0.53" stop-color="#ECC675"/>
<stop offset="0.67" stop-color="#FFEB9E"/>
<stop offset="0.81" stop-color="#977943"/>
<stop offset="0.89" stop-color="#603D13"/>
<stop offset="0.92" stop-color="#7A5118"/>
<stop offset="0.95" stop-color="#8C5E1C"/>
<stop offset="1" stop-color="#D69C47"/>
</linearGradient>
<linearGradient id="paint3_linear_6_3" x1="153.873" y1="-33.7165" x2="204.429" y2="53.8521" gradientUnits="userSpaceOnUse">
<stop stop-color="#D69C47"/>
<stop offset="0.24" stop-color="#FFE68F"/>
<stop offset="0.32" stop-color="#E8BC66"/>
<stop offset="0.39" stop-color="#D69C47"/>
<stop offset="0.53" stop-color="#ECC675"/>
<stop offset="0.67" stop-color="#FFEB9E"/>
<stop offset="0.81" stop-color="#977943"/>
<stop offset="0.89" stop-color="#603D13"/>
<stop offset="0.92" stop-color="#7A5118"/>
<stop offset="0.95" stop-color="#8C5E1C"/>
<stop offset="1" stop-color="#D69C47"/>
</linearGradient>
<linearGradient id="paint4_linear_6_3" x1="153.873" y1="-33.7165" x2="204.429" y2="53.8521" gradientUnits="userSpaceOnUse">
<stop stop-color="#D69C47"/>
<stop offset="0.24" stop-color="#FFE68F"/>
<stop offset="0.32" stop-color="#E8BC66"/>
<stop offset="0.39" stop-color="#D69C47"/>
<stop offset="0.53" stop-color="#ECC675"/>
<stop offset="0.67" stop-color="#FFEB9E"/>
<stop offset="0.81" stop-color="#977943"/>
<stop offset="0.89" stop-color="#603D13"/>
<stop offset="0.92" stop-color="#7A5118"/>
<stop offset="0.95" stop-color="#8C5E1C"/>
<stop offset="1" stop-color="#D69C47"/>
</linearGradient>
<linearGradient id="paint5_linear_6_3" x1="153.873" y1="-33.7165" x2="204.429" y2="53.8521" gradientUnits="userSpaceOnUse">
<stop stop-color="#D69C47"/>
<stop offset="0.24" stop-color="#FFE68F"/>
<stop offset="0.32" stop-color="#E8BC66"/>
<stop offset="0.39" stop-color="#D69C47"/>
<stop offset="0.53" stop-color="#ECC675"/>
<stop offset="0.67" stop-color="#FFEB9E"/>
<stop offset="0.81" stop-color="#977943"/>
<stop offset="0.89" stop-color="#603D13"/>
<stop offset="0.92" stop-color="#7A5118"/>
<stop offset="0.95" stop-color="#8C5E1C"/>
<stop offset="1" stop-color="#D69C47"/>
</linearGradient>
<linearGradient id="paint6_linear_6_3" x1="153.873" y1="-33.7162" x2="204.429" y2="53.8524" gradientUnits="userSpaceOnUse">
<stop stop-color="#D69C47"/>
<stop offset="0.24" stop-color="#FFE68F"/>
<stop offset="0.32" stop-color="#E8BC66"/>
<stop offset="0.39" stop-color="#D69C47"/>
<stop offset="0.53" stop-color="#ECC675"/>
<stop offset="0.67" stop-color="#FFEB9E"/>
<stop offset="0.81" stop-color="#977943"/>
<stop offset="0.89" stop-color="#603D13"/>
<stop offset="0.92" stop-color="#7A5118"/>
<stop offset="0.95" stop-color="#8C5E1C"/>
<stop offset="1" stop-color="#D69C47"/>
</linearGradient>
<linearGradient id="paint7_linear_6_3" x1="153.873" y1="-33.7162" x2="204.429" y2="53.8525" gradientUnits="userSpaceOnUse">
<stop stop-color="#D69C47"/>
<stop offset="0.24" stop-color="#FFE68F"/>
<stop offset="0.32" stop-color="#E8BC66"/>
<stop offset="0.39" stop-color="#D69C47"/>
<stop offset="0.53" stop-color="#ECC675"/>
<stop offset="0.67" stop-color="#FFEB9E"/>
<stop offset="0.81" stop-color="#977943"/>
<stop offset="0.89" stop-color="#603D13"/>
<stop offset="0.92" stop-color="#7A5118"/>
<stop offset="0.95" stop-color="#8C5E1C"/>
<stop offset="1" stop-color="#D69C47"/>
</linearGradient>
<linearGradient id="paint8_linear_6_3" x1="153.873" y1="-33.7165" x2="204.429" y2="53.8521" gradientUnits="userSpaceOnUse">
<stop stop-color="#D69C47"/>
<stop offset="0.24" stop-color="#FFE68F"/>
<stop offset="0.32" stop-color="#E8BC66"/>
<stop offset="0.39" stop-color="#D69C47"/>
<stop offset="0.53" stop-color="#ECC675"/>
<stop offset="0.67" stop-color="#FFEB9E"/>
<stop offset="0.81" stop-color="#977943"/>
<stop offset="0.89" stop-color="#603D13"/>
<stop offset="0.92" stop-color="#7A5118"/>
<stop offset="0.95" stop-color="#8C5E1C"/>
<stop offset="1" stop-color="#D69C47"/>
</linearGradient>
<linearGradient id="paint9_linear_6_3" x1="135.5" y1="-26.3626" x2="231.951" y2="140.7" gradientUnits="userSpaceOnUse">
<stop stop-color="#D69C47"/>
<stop offset="0.24" stop-color="#FFE68F"/>
<stop offset="0.32" stop-color="#E8BC66"/>
<stop offset="0.39" stop-color="#D69C47"/>
<stop offset="0.53" stop-color="#ECC675"/>
<stop offset="0.67" stop-color="#FFEB9E"/>
<stop offset="0.81" stop-color="#977943"/>
<stop offset="0.89" stop-color="#603D13"/>
<stop offset="0.92" stop-color="#7A5118"/>
<stop offset="0.95" stop-color="#8C5E1C"/>
<stop offset="1" stop-color="#D69C47"/>
</linearGradient>
<linearGradient id="paint10_linear_6_3" x1="135.5" y1="-26.3629" x2="231.951" y2="140.7" gradientUnits="userSpaceOnUse">
<stop stop-color="#D69C47"/>
<stop offset="0.24" stop-color="#FFE68F"/>
<stop offset="0.32" stop-color="#E8BC66"/>
<stop offset="0.39" stop-color="#D69C47"/>
<stop offset="0.53" stop-color="#ECC675"/>
<stop offset="0.67" stop-color="#FFEB9E"/>
<stop offset="0.81" stop-color="#977943"/>
<stop offset="0.89" stop-color="#603D13"/>
<stop offset="0.92" stop-color="#7A5118"/>
<stop offset="0.95" stop-color="#8C5E1C"/>
<stop offset="1" stop-color="#D69C47"/>
</linearGradient>
<linearGradient id="paint11_linear_6_3" x1="135.5" y1="-26.3629" x2="231.951" y2="140.7" gradientUnits="userSpaceOnUse">
<stop stop-color="#D69C47"/>
<stop offset="0.24" stop-color="#FFE68F"/>
<stop offset="0.32" stop-color="#E8BC66"/>
<stop offset="0.39" stop-color="#D69C47"/>
<stop offset="0.53" stop-color="#ECC675"/>
<stop offset="0.67" stop-color="#FFEB9E"/>
<stop offset="0.81" stop-color="#977943"/>
<stop offset="0.89" stop-color="#603D13"/>
<stop offset="0.92" stop-color="#7A5118"/>
<stop offset="0.95" stop-color="#8C5E1C"/>
<stop offset="1" stop-color="#D69C47"/>
</linearGradient>
<linearGradient id="paint12_linear_6_3" x1="135.5" y1="-26.3629" x2="231.951" y2="140.7" gradientUnits="userSpaceOnUse">
<stop stop-color="#D69C47"/>
<stop offset="0.24" stop-color="#FFE68F"/>
<stop offset="0.32" stop-color="#E8BC66"/>
<stop offset="0.39" stop-color="#D69C47"/>
<stop offset="0.53" stop-color="#ECC675"/>
<stop offset="0.67" stop-color="#FFEB9E"/>
<stop offset="0.81" stop-color="#977943"/>
<stop offset="0.89" stop-color="#603D13"/>
<stop offset="0.92" stop-color="#7A5118"/>
<stop offset="0.95" stop-color="#8C5E1C"/>
<stop offset="1" stop-color="#D69C47"/>
</linearGradient>
<linearGradient id="paint13_linear_6_3" x1="135.5" y1="-26.3629" x2="231.951" y2="140.7" gradientUnits="userSpaceOnUse">
<stop stop-color="#D69C47"/>
<stop offset="0.24" stop-color="#FFE68F"/>
<stop offset="0.32" stop-color="#E8BC66"/>
<stop offset="0.39" stop-color="#D69C47"/>
<stop offset="0.53" stop-color="#ECC675"/>
<stop offset="0.67" stop-color="#FFEB9E"/>
<stop offset="0.81" stop-color="#977943"/>
<stop offset="0.89" stop-color="#603D13"/>
<stop offset="0.92" stop-color="#7A5118"/>
<stop offset="0.95" stop-color="#8C5E1C"/>
<stop offset="1" stop-color="#D69C47"/>
</linearGradient>
<linearGradient id="paint14_linear_6_3" x1="135.5" y1="-26.3629" x2="231.95" y2="140.7" gradientUnits="userSpaceOnUse">
<stop stop-color="#D69C47"/>
<stop offset="0.24" stop-color="#FFE68F"/>
<stop offset="0.32" stop-color="#E8BC66"/>
<stop offset="0.39" stop-color="#D69C47"/>
<stop offset="0.53" stop-color="#ECC675"/>
<stop offset="0.67" stop-color="#FFEB9E"/>
<stop offset="0.81" stop-color="#977943"/>
<stop offset="0.89" stop-color="#603D13"/>
<stop offset="0.92" stop-color="#7A5118"/>
<stop offset="0.95" stop-color="#8C5E1C"/>
<stop offset="1" stop-color="#D69C47"/>
</linearGradient>
<linearGradient id="paint15_linear_6_3" x1="135.5" y1="-26.3629" x2="231.95" y2="140.7" gradientUnits="userSpaceOnUse">
<stop stop-color="#D69C47"/>
<stop offset="0.24" stop-color="#FFE68F"/>
<stop offset="0.32" stop-color="#E8BC66"/>
<stop offset="0.39" stop-color="#D69C47"/>
<stop offset="0.53" stop-color="#ECC675"/>
<stop offset="0.67" stop-color="#FFEB9E"/>
<stop offset="0.81" stop-color="#977943"/>
<stop offset="0.89" stop-color="#603D13"/>
<stop offset="0.92" stop-color="#7A5118"/>
<stop offset="0.95" stop-color="#8C5E1C"/>
<stop offset="1" stop-color="#D69C47"/>
</linearGradient>
<linearGradient id="paint16_linear_6_3" x1="135.5" y1="-26.3627" x2="231.95" y2="140.7" gradientUnits="userSpaceOnUse">
<stop stop-color="#D69C47"/>
<stop offset="0.24" stop-color="#FFE68F"/>
<stop offset="0.32" stop-color="#E8BC66"/>
<stop offset="0.39" stop-color="#D69C47"/>
<stop offset="0.53" stop-color="#ECC675"/>
<stop offset="0.67" stop-color="#FFEB9E"/>
<stop offset="0.81" stop-color="#977943"/>
<stop offset="0.89" stop-color="#603D13"/>
<stop offset="0.92" stop-color="#7A5118"/>
<stop offset="0.95" stop-color="#8C5E1C"/>
<stop offset="1" stop-color="#D69C47"/>
</linearGradient>
</defs>
</svg>
