<svg width="122" height="79" viewBox="0 0 122 79" fill="none" xmlns="http://www.w3.org/2000/svg">
<g clip-path="url(#clip0_8_150)">
<path d="M90.36 20.02C88.61 20.02 87.19 21.44 87.19 23.19C87.19 24.94 88.61 26.36 90.36 26.36C92.11 26.36 93.53 24.94 93.53 23.19C93.53 21.44 92.11 20.02 90.36 20.02Z" fill="#E2AA47"/>
<path d="M70.48 41.6601C70.48 41.6601 79.98 39.6901 89.14 24.1101H90.77L101.04 49.5301L89.23 50.7301L74.51 47.1401L70.49 41.6601H70.48Z" fill="#D8A33A"/>
<path d="M70.48 41.6601C70.48 41.6601 79.98 39.6901 89.14 24.1101H90.77L101.04 49.5301L89.23 50.7301L74.51 47.1401L70.49 41.6601H70.48Z" fill="url(#paint0_linear_8_150)"/>
<path d="M70.48 41.6601C70.48 41.6601 79.98 39.6901 89.14 24.1101H90.77L101.04 49.5301L89.23 50.7301L74.51 47.1401L70.49 41.6601H70.48Z" fill="black" fill-opacity="0.2"/>
<path d="M46.92 41.6601C46.92 41.6601 37.42 39.6901 28.26 24.1101H26.63L16.36 49.5301L28.17 50.7301L42.89 47.1401L46.91 41.6601H46.92Z" fill="#D8A33A"/>
<path d="M46.92 41.6601C46.92 41.6601 37.42 39.6901 28.26 24.1101H26.63L16.36 49.5301L28.17 50.7301L42.89 47.1401L46.91 41.6601H46.92Z" fill="url(#paint1_linear_8_150)"/>
<path d="M46.92 41.6601C46.92 41.6601 37.42 39.6901 28.26 24.1101H26.63L16.36 49.5301L28.17 50.7301L42.89 47.1401L46.91 41.6601H46.92Z" fill="black" fill-opacity="0.2"/>
<path d="M27.05 20.02C28.8 20.02 30.22 21.44 30.22 23.19C30.22 24.94 28.8 26.36 27.05 26.36C25.3 26.36 23.88 24.94 23.88 23.19C23.88 21.44 25.3 20.02 27.05 20.02Z" fill="#E2AA47"/>
<path d="M15.26 71.5601C15.26 71.5601 16.96 48.0701 5.04 23.2301C3.55 20.1201 2.99 16.6401 3.43 13.2201H5.31L5.69 15.6601C5.69 15.6601 10.95 27.3101 21.76 37.3701C21.76 37.3701 31.9 46.3301 41.03 32.9501C52.38 16.3201 56.16 13.6801 58.33 6.51012L58.98 4.37012H63.3L63.4 5.06012C64.8 14.4301 77.15 30.0801 81.53 34.9201C81.53 34.9201 91.87 51.3701 103.62 33.2301L117.06 14.0601L119.69 14.6201C119.69 14.6201 103.62 45.6701 105.62 71.5501C105.62 78.3101 15.25 78.3101 15.25 71.5501L15.26 71.5601Z" fill="url(#paint2_linear_8_150)"/>
<path d="M13.91 71.56C13.91 70.81 14.51 70.21 15.26 70.21C15.94 70.21 16.49 70.71 16.59 71.35C21.45 76.5 99.36 76.58 104.29 71.35C104.39 70.7 104.95 70.21 105.62 70.21C106.37 70.21 106.97 70.81 106.97 71.56C106.97 80.26 13.9 80.26 13.9 71.56H13.91Z" fill="#EFBC56"/>
<path d="M11.26 50.5001C11.26 49.7101 11.9 49.0701 12.69 49.0701C13.4 49.0701 13.99 49.5901 14.1 50.2801C19.26 55.7601 101.6 55.7901 106.8 50.2801C106.91 49.5901 107.5 49.0701 108.21 49.0701C109 49.0701 109.64 49.7101 109.64 50.5001C109.64 59.6901 11.27 59.6901 11.27 50.5001H11.26Z" fill="#EFBC56"/>
<path d="M61.04 0C58.86 0 57.09 1.77 57.09 3.95C57.09 6.13 58.86 7.9 61.04 7.9C63.22 7.9 64.99 6.13 64.99 3.95C64.99 1.77 63.22 0 61.04 0Z" fill="#EFBC56"/>
<path d="M117.94 16.5801C119.934 16.5801 121.55 14.9639 121.55 12.9701C121.55 10.9764 119.934 9.36011 117.94 9.36011C115.946 9.36011 114.33 10.9764 114.33 12.9701C114.33 14.9639 115.946 16.5801 117.94 16.5801Z" fill="#EFBC56"/>
<path opacity="0.1" d="M22.38 37.86C21.99 37.58 21.75 37.38 21.75 37.38C10.95 27.32 5.69 15.67 5.69 15.67L5.31 13.23H3.43C2.99 16.65 3.55 20.13 5.04 23.24C16.95 48.07 15.26 71.57 15.26 71.57C15.26 72.73 17.96 73.69 22.39 74.45V37.86H22.38Z" fill="white"/>
<path d="M3.61 16.5801C5.60375 16.5801 7.22 14.9639 7.22 12.9701C7.22 10.9764 5.60375 9.36011 3.61 9.36011C1.61625 9.36011 0 10.9764 0 12.9701C0 14.9639 1.61625 16.5801 3.61 16.5801Z" fill="#EFBC56"/>
<path opacity="0.15" d="M3.36 10.3501C2.89 9.99006 2.03 10.3501 1.43 11.1301C0.829999 11.9201 0.729999 12.8401 1.2 13.2001C1.67 13.5601 2.53 13.2001 3.13 12.4201C3.73 11.6301 3.83 10.7101 3.36 10.3501Z" fill="white"/>
<path opacity="0.15" d="M27.13 20.9699C26.66 20.6099 25.8 20.9699 25.2 21.7499C24.6 22.5399 24.5 23.4599 24.97 23.8199C25.44 24.1799 26.3 23.8199 26.9 23.0399C27.5 22.2499 27.6 21.3299 27.13 20.9699Z" fill="white"/>
<path opacity="0.15" d="M60.9 0.929989C60.32 0.489989 59.25 0.909989 58.52 1.86999C57.79 2.82999 57.66 3.96999 58.25 4.41999C58.83 4.85999 59.9 4.43999 60.63 3.47999C61.36 2.51999 61.49 1.37999 60.9 0.929989Z" fill="white"/>
<path opacity="0.15" d="M90.46 20.8299C90.05 20.4799 89.17 20.8499 88.48 21.6599C87.8 22.4599 87.57 23.3999 87.98 23.7399C88.39 24.0899 89.27 23.7199 89.96 22.9199C90.64 22.1199 90.87 21.1799 90.46 20.8399V20.8299Z" fill="white"/>
<path opacity="0.15" d="M117.95 10.3299C117.54 9.97994 116.66 10.3499 115.97 11.1599C115.29 11.9599 115.06 12.8999 115.47 13.2399C115.88 13.5899 116.76 13.2199 117.45 12.4199C118.13 11.6199 118.36 10.6799 117.95 10.3399V10.3299Z" fill="white"/>
</g>
<defs>
<linearGradient id="paint0_linear_8_150" x1="113.476" y1="59.5" x2="70.284" y2="17.6035" gradientUnits="userSpaceOnUse">
<stop stop-color="#D69C47"/>
<stop offset="0.24" stop-color="#FFE68F"/>
<stop offset="0.32" stop-color="#E8BC66"/>
<stop offset="0.39" stop-color="#D69C47"/>
<stop offset="0.53" stop-color="#ECC675"/>
<stop offset="0.67" stop-color="#FFEB9E"/>
<stop offset="0.81" stop-color="#977943"/>
<stop offset="0.89" stop-color="#603D13"/>
<stop offset="0.92" stop-color="#7A5118"/>
<stop offset="0.95" stop-color="#8C5E1C"/>
<stop offset="1" stop-color="#D69C47"/>
</linearGradient>
<linearGradient id="paint1_linear_8_150" x1="59.3562" y1="59.5" x2="16.164" y2="17.6035" gradientUnits="userSpaceOnUse">
<stop stop-color="#D69C47"/>
<stop offset="0.24" stop-color="#FFE68F"/>
<stop offset="0.32" stop-color="#E8BC66"/>
<stop offset="0.39" stop-color="#D69C47"/>
<stop offset="0.53" stop-color="#ECC675"/>
<stop offset="0.67" stop-color="#FFEB9E"/>
<stop offset="0.81" stop-color="#977943"/>
<stop offset="0.89" stop-color="#603D13"/>
<stop offset="0.92" stop-color="#7A5118"/>
<stop offset="0.95" stop-color="#8C5E1C"/>
<stop offset="1" stop-color="#D69C47"/>
</linearGradient>
<linearGradient id="paint2_linear_8_150" x1="-4" y1="28.5" x2="100.147" y2="129.459" gradientUnits="userSpaceOnUse">
<stop stop-color="#D69C47"/>
<stop offset="0.24" stop-color="#FFE68F"/>
<stop offset="0.32" stop-color="#E8BC66"/>
<stop offset="0.39" stop-color="#D69C47"/>
<stop offset="0.53" stop-color="#ECC675"/>
<stop offset="0.67" stop-color="#FFEB9E"/>
<stop offset="0.81" stop-color="#977943"/>
<stop offset="0.89" stop-color="#603D13"/>
<stop offset="0.92" stop-color="#7A5118"/>
<stop offset="0.95" stop-color="#8C5E1C"/>
<stop offset="1" stop-color="#D69C47"/>
</linearGradient>
<clipPath id="clip0_8_150">
<rect width="121.55" height="78.09" fill="white"/>
</clipPath>
</defs>
</svg>
